<svg id="logo" width="96" height="24" viewBox="0 0 96 21" fill="none" xmlns="http://www.w3.org/2000/svg">
<path d="M20.2008 8.288C17.2195 12.2053 14.1342 16.0707 10.9448 19.884L8.18884 17.492C8.96884 12.7947 9.7315 9.11133 10.4768 6.442C8.60484 9.42333 6.93217 12.4133 5.45884 15.412C4.8695 16.5907 4.23684 17.908 3.56084 19.364L0.778835 16.764C2.39084 13.5053 3.74284 10.9833 4.83484 9.198C6.7415 6.11267 8.7435 3.20067 10.8408 0.461998L14.6628 3.816C13.6402 7.10933 12.8775 10.29 12.3748 13.358C15.1308 10.0127 18.1208 6.01733 21.3448 1.372L25.0628 4.57C24.0228 7.93267 23.2515 10.264 22.7488 11.564C22.2635 12.8467 21.8475 13.9213 21.5008 14.788C20.8768 16.348 20.0362 18.324 18.9788 20.716L15.8848 18.194C17.3235 15.282 18.3375 13.0807 18.9268 11.59C19.5162 10.0993 19.9408 8.99867 20.2008 8.288ZM34.2831 10.758C34.2831 10.1513 34.1098 9.67467 33.7631 9.328C33.4338 8.964 32.9831 8.782 32.4111 8.782C31.8391 8.782 31.3451 8.92933 30.9291 9.224C30.5304 9.50133 30.2531 10.004 30.0971 10.732L26.3531 9.848C26.5958 8.6 27.2371 7.60333 28.2771 6.858C29.3171 6.11267 30.7818 5.74 32.6711 5.74C34.5778 5.74 36.0511 6.16467 37.0911 7.014C38.1484 7.846 38.6771 9.068 38.6771 10.68V15.438C38.6771 16.114 38.9804 16.452 39.5871 16.452C39.8991 16.452 40.1504 16.4173 40.3411 16.348L40.0811 18.87C39.5611 19.1127 38.9284 19.234 38.1831 19.234C37.3684 19.234 36.6664 19.078 36.0771 18.766C35.4878 18.4367 35.0891 17.9427 34.8811 17.284C34.5171 17.96 33.9364 18.4627 33.1391 18.792C32.3591 19.104 31.5271 19.26 30.6431 19.26C29.3084 19.26 28.2424 18.9567 27.4451 18.35C26.6651 17.726 26.2751 16.8333 26.2751 15.672C26.2751 14.736 26.5524 13.9647 27.1071 13.358C27.6791 12.734 28.5718 12.3007 29.7851 12.058L34.2831 11.122V10.758ZM30.6431 15.256C30.6431 15.6373 30.7818 15.9233 31.0591 16.114C31.3364 16.3047 31.6658 16.4 32.0471 16.4C32.6364 16.4 33.1564 16.2267 33.6071 15.88C34.0578 15.516 34.2831 14.9527 34.2831 14.19V13.462L32.1771 13.904C31.6571 14.008 31.2671 14.164 31.0071 14.372C30.7644 14.5627 30.6431 14.8573 30.6431 15.256ZM50.3659 6V9.146H46.4919V14.372C46.4919 14.996 46.6392 15.4467 46.9339 15.724C47.2459 15.984 47.6706 16.114 48.2079 16.114C48.6239 16.114 48.9792 16.0707 49.2739 15.984C49.5686 15.88 49.8459 15.7327 50.1059 15.542L50.5739 18.272C50.1406 18.5667 49.5859 18.8093 48.9099 19C48.2512 19.1733 47.5839 19.26 46.9079 19.26C45.4172 19.26 44.2386 18.948 43.3719 18.324C42.5226 17.6827 42.0892 16.608 42.0719 15.1V9.146H39.8359V6H42.0719V3.088L46.4919 1.866V6H50.3659ZM58.0495 5.74C59.3669 5.74 60.4589 5.93067 61.3255 6.312C62.2095 6.69333 62.8942 7.18733 63.3795 7.794C63.8649 8.40067 64.1769 9.05933 64.3155 9.77L60.2335 11.122C60.1295 10.3767 59.9129 9.822 59.5835 9.458C59.2542 9.07667 58.7862 8.886 58.1795 8.886C57.3475 8.886 56.7149 9.18067 56.2815 9.77C55.8655 10.3593 55.6575 11.2867 55.6575 12.552C55.6575 13.8347 55.8829 14.7533 56.3335 15.308C56.8015 15.8453 57.4255 16.114 58.2055 16.114C59.4362 16.114 60.1555 15.412 60.3635 14.008L64.3415 15.282C64.1509 16.4087 63.5182 17.3533 62.4435 18.116C61.3862 18.8787 59.9822 19.26 58.2315 19.26C56.0995 19.26 54.3922 18.6707 53.1095 17.492C51.8442 16.296 51.2115 14.632 51.2115 12.5C51.2115 11.0787 51.4975 9.86533 52.0695 8.86C52.6589 7.85467 53.4649 7.08333 54.4875 6.546C55.5102 6.00867 56.6975 5.74 58.0495 5.74ZM66.1195 19V0.488H70.5395V8.366C70.9208 7.49933 71.4668 6.84933 72.1775 6.416C72.8881 5.96533 73.7115 5.74 74.6475 5.74C75.9821 5.74 77.0655 6.13 77.8975 6.91C78.7295 7.69 79.1455 8.834 79.1455 10.342V19H74.7255V11.564C74.7255 10.628 74.5521 9.98667 74.2055 9.64C73.8761 9.276 73.4341 9.094 72.8795 9.094C72.2555 9.094 71.7095 9.33667 71.2415 9.822C70.7735 10.29 70.5395 11.07 70.5395 12.162V19H66.1195ZM88.9765 10.758C88.9765 10.1513 88.8032 9.67467 88.4565 9.328C88.1272 8.964 87.6765 8.782 87.1045 8.782C86.5325 8.782 86.0385 8.92933 85.6225 9.224C85.2239 9.50133 84.9465 10.004 84.7905 10.732L81.0465 9.848C81.2892 8.6 81.9305 7.60333 82.9705 6.858C84.0105 6.11267 85.4752 5.74 87.3645 5.74C89.2712 5.74 90.7445 6.16467 91.7845 7.014C92.8419 7.846 93.3705 9.068 93.3705 10.68V15.438C93.3705 16.114 93.6739 16.452 94.2805 16.452C94.5925 16.452 94.8439 16.4173 95.0345 16.348L94.7745 18.87C94.2545 19.1127 93.6219 19.234 92.8765 19.234C92.0619 19.234 91.3599 19.078 90.7705 18.766C90.1812 18.4367 89.7825 17.9427 89.5745 17.284C89.2105 17.96 88.6299 18.4627 87.8325 18.792C87.0525 19.104 86.2205 19.26 85.3365 19.26C84.0019 19.26 82.9359 18.9567 82.1385 18.35C81.3585 17.726 80.9685 16.8333 80.9685 15.672C80.9685 14.736 81.2459 13.9647 81.8005 13.358C82.3725 12.734 83.2652 12.3007 84.4785 12.058L88.9765 11.122V10.758ZM85.3365 15.256C85.3365 15.6373 85.4752 15.9233 85.7525 16.114C86.0299 16.3047 86.3592 16.4 86.7405 16.4C87.3299 16.4 87.8499 16.2267 88.3005 15.88C88.7512 15.516 88.9765 14.9527 88.9765 14.19V13.462L86.8705 13.904C86.3505 14.008 85.9605 14.164 85.7005 14.372C85.4579 14.5627 85.3365 14.8573 85.3365 15.256Z" fill="#EF5DA8"/>
</svg>
