<svg width="24" height="24" viewBox="0 0 70 72" fill="none" xmlns="http://www.w3.org/2000/svg">
<path fill-rule="evenodd" clip-rule="evenodd" d="M38.2269 7.5H17.6618L26.3655 12.6744C28.791 14.1163 30.2774 16.7293 30.2774 19.551V58.7727H38.2269C40.1599 58.7727 41.7269 57.2057 41.7269 55.2727V45H46.2269V55.2727C46.2269 59.691 42.6452 63.2727 38.2269 63.2727H30.2774V63.937C30.2774 70.1409 23.522 73.9839 18.1893 70.8136L3.91186 62.3256C1.48645 60.8837 0 58.2707 0 55.449V55.2727V11.063V11C0 6.58173 3.58172 3 8 3H38.2269C42.6452 3 46.2269 6.58172 46.2269 11V24H41.7269V11C41.7269 9.067 40.1599 7.5 38.2269 7.5ZM36.912 30.8393C36.912 30.287 37.3597 29.8393 37.912 29.8393H54.5164V26.3651C54.5164 25.5891 55.3618 25.1088 56.0284 25.506L69.4977 33.5331C70.1485 33.9209 70.1485 34.8633 69.4977 35.2511L56.0284 43.2781C55.3618 43.6754 54.5164 43.1951 54.5164 42.4191V39.1298H37.912C37.3597 39.1298 36.912 38.6821 36.912 38.1298V30.8393Z" fill="white"/>
</svg>
