<svg width="194" height="144" viewBox="0 0 194 144" fill="none" xmlns="http://www.w3.org/2000/svg">
<rect x="1" y="1" width="192" height="143" fill="#C4C4C4"/>
<path fill-rule="evenodd" clip-rule="evenodd" d="M91.7808 61C91.3219 61 90.9219 61.3123 90.8106 61.7575L90.3106 63.7575C90.2902 63.8391 90.2805 63.9203 90.2803 64H89V63H85V64H84C83.4477 64 83 64.4477 83 65V83C83 83.5523 83.4477 84 84 84H110C110.552 84 111 83.5523 111 83V65C111 64.4477 110.552 64 110 64H103.72C103.72 63.9203 103.71 63.8391 103.689 63.7575L103.189 61.7575C103.078 61.3123 102.678 61 102.219 61H91.7808ZM105.5 66C105.224 66 105 66.2239 105 66.5V67.5C105 67.7761 105.224 68 105.5 68H108.5C108.776 68 109 67.7761 109 67.5V66.5C109 66.2239 108.776 66 108.5 66H105.5ZM105 74C105 78.4183 101.418 82 97 82C92.5817 82 89 78.4183 89 74C89 69.5817 92.5817 66 97 66C101.418 66 105 69.5817 105 74ZM97 79C99.7614 79 102 76.7614 102 74C102 71.2386 99.7614 69 97 69C94.2386 69 92 71.2386 92 74C92 76.7614 94.2386 79 97 79Z" fill="white"/>
<path fill-rule="evenodd" clip-rule="evenodd" d="M81.0491 60.155L1.16742 0.812805L0.83606 1.18724L80.7524 60.5551C80.8496 60.4205 80.9486 60.2871 81.0491 60.155ZM113.243 84.0711C113.143 84.2034 113.041 84.3344 112.937 84.4641L192.834 143.818L193.166 143.444L113.243 84.0711Z" fill="white"/>
</svg>
