<svg width="258" height="194" viewBox="0 0 258 194" fill="none" xmlns="http://www.w3.org/2000/svg">
<rect x="0" y="0" width="258" height="194" fill="#C4C4C4"/>
<path fill-rule="evenodd" clip-rule="evenodd" d="M123.781 85C123.322 85 122.922 85.3123 122.811 85.7575L122.311 87.7575C122.29 87.8391 122.28 87.9203 122.28 88H121V87H117V88H116C115.448 88 115 88.4477 115 89V107C115 107.552 115.448 108 116 108H142C142.552 108 143 107.552 143 107V89C143 88.4477 142.552 88 142 88H135.72C135.72 87.9203 135.71 87.8391 135.689 87.7575L135.189 85.7575C135.078 85.3123 134.678 85 134.219 85H123.781ZM137.5 90C137.224 90 137 90.2239 137 90.5V91.5C137 91.7761 137.224 92 137.5 92H140.5C140.776 92 141 91.7761 141 91.5V90.5C141 90.2239 140.776 90 140.5 90H137.5ZM137 98C137 102.418 133.418 106 129 106C124.582 106 121 102.418 121 98C121 93.5817 124.582 90 129 90C133.418 90 137 93.5817 137 98ZM129 103C131.761 103 134 100.761 134 98C134 95.2386 131.761 93 129 93C126.239 93 124 95.2386 124 98C124 100.761 126.239 103 129 103Z" fill="white"/>
<path fill-rule="evenodd" clip-rule="evenodd" d="M107.724 80.7308L1.14876 0.799194L0.85144 1.20119L107.428 81.1336C107.525 80.9984 107.624 80.8641 107.724 80.7308ZM150.562 112.859C150.461 112.992 150.359 113.124 150.256 113.255L256.851 193.201L257.149 192.799L150.562 112.859Z" fill="white"/>
</svg>
