<svg width="24" height="24" viewBox="0 0 59 65" fill="none" xmlns="http://www.w3.org/2000/svg">
<path fill-rule="evenodd" clip-rule="evenodd" d="M0.0177617 56.6742C0.00595284 56.4172 0 56.1591 0 55.9C0 43.6945 13.2076 33.8 29.5 33.8C45.7924 33.8 59 43.6945 59 55.9C59 56.1591 58.994 56.4172 58.9822 56.6742C51.0334 61.8674 40.7419 65 29.5 65C18.2581 65 7.96661 61.8674 0.0177617 56.6742ZM45.5909 15.6C45.5909 24.2156 38.3868 31.2 29.5 31.2C20.6133 31.2 13.4091 24.2156 13.4091 15.6C13.4091 6.98436 20.6133 0 29.5 0C38.3868 0 45.5909 6.98436 45.5909 15.6Z" fill="white"/>
</svg>
