<svg width="26" height="21" viewBox="0 0 26 21" fill="none" xmlns="http://www.w3.org/2000/svg">
<path d="M20.3159 8.288C17.3345 12.2053 14.2492 16.0707 11.0599 19.884L8.30388 17.492C9.08388 12.7947 9.84654 9.11133 10.5919 6.442C8.71988 9.42333 7.04721 12.4133 5.57388 15.412C4.98454 16.5907 4.35188 17.908 3.67588 19.364L0.893875 16.764C2.50587 13.5053 3.85788 10.9833 4.94988 9.198C6.85654 6.11267 8.85854 3.20067 10.9559 0.461998L14.7779 3.816C13.7552 7.10933 12.9925 10.29 12.4899 13.358C15.2459 10.0127 18.2359 6.01733 21.4599 1.372L25.1779 4.57C24.1379 7.93267 23.3665 10.264 22.8639 11.564C22.3785 12.8467 21.9625 13.9213 21.6159 14.788C20.9919 16.348 20.1512 18.324 19.0939 20.716L15.9999 18.194C17.4385 15.282 18.4525 13.0807 19.0419 11.59C19.6312 10.0993 20.0559 8.99867 20.3159 8.288Z" fill="#EF5DA8"/>
</svg>
